<svg xmlns="http://www.w3.org/2000/svg" xmlns:xlink="http://www.w3.org/1999/xlink" width="500" zoomAndPan="magnify" viewBox="0 0 375 374.999991" height="500" preserveAspectRatio="xMidYMid meet" version="1.0"><defs><clipPath id="837e06195d"><path d="M 42.28125 112 L 332.53125 112 L 332.53125 305.921875 L 42.28125 305.921875 Z M 42.28125 112 " clip-rule="nonzero"/></clipPath><clipPath id="d60edde439"><path d="M 164.59375 314.59375 L 210.34375 314.59375 L 210.34375 360.34375 L 164.59375 360.34375 Z M 164.59375 314.59375 " clip-rule="nonzero"/></clipPath></defs><rect x="-37.5" width="450" fill="#ffffff" y="-37.499999" height="449.999989" fill-opacity="1"/><rect x="-37.5" width="450" fill="#ffffff" y="-37.499999" height="449.999989" fill-opacity="1"/><rect x="-37.5" width="450" fill="#ffffff" y="-37.499999" height="449.999989" fill-opacity="1"/><g clip-path="url(#837e06195d)"><path fill="#556b24" d="M 327.558594 269.417969 C 330.042969 269.417969 332.078125 267.382812 332.078125 264.894531 C 332.078125 262.410156 330.042969 260.375 327.558594 260.375 L 285.511719 260.375 L 277.601562 251.332031 L 327.558594 251.332031 C 330.042969 251.332031 332.078125 249.296875 332.078125 246.8125 C 332.078125 244.324219 330.042969 242.289062 327.558594 242.289062 L 304.953125 242.289062 L 304.953125 233.925781 C 309.925781 233.023438 318.0625 230.988281 323.714844 225.335938 C 332.53125 216.519531 332.078125 203.183594 332.078125 202.730469 C 332.078125 200.246094 329.820312 198.210938 327.332031 198.4375 C 326.652344 198.4375 313.542969 198.886719 304.953125 207.027344 L 304.953125 195.722656 C 309.925781 194.820312 318.0625 192.785156 323.714844 187.132812 C 332.53125 178.316406 332.078125 164.980469 332.078125 164.527344 C 332.078125 162.042969 329.820312 160.007812 327.332031 160.234375 C 326.652344 160.234375 313.542969 160.683594 304.953125 168.824219 L 304.953125 159.78125 C 307.664062 156.390625 313.996094 148.027344 313.996094 137.628906 C 313.996094 124.742188 304.046875 114.570312 303.597656 114.117188 C 301.789062 112.308594 298.847656 112.308594 297.265625 114.117188 C 296.816406 114.570312 286.867188 124.742188 286.867188 137.628906 C 286.867188 147.800781 293.199219 156.390625 295.910156 159.78125 L 295.910156 168.824219 C 287.320312 160.683594 273.984375 160.234375 273.53125 160.234375 C 271.046875 160.007812 269.011719 162.042969 268.785156 164.527344 C 268.785156 164.980469 268.332031 178.316406 277.148438 187.132812 C 282.800781 193.011719 290.9375 195.046875 295.910156 195.722656 L 295.910156 207.027344 C 287.320312 198.886719 273.984375 198.4375 273.53125 198.4375 C 271.046875 198.210938 269.011719 200.246094 268.785156 202.730469 C 268.785156 203.183594 268.332031 216.519531 277.148438 225.335938 C 282.800781 231.214844 290.9375 233.246094 295.910156 233.925781 L 295.910156 242.289062 L 248.441406 242.289062 L 248.441406 237.316406 C 251.152344 233.925781 257.480469 225.5625 257.480469 215.164062 C 257.480469 202.277344 247.535156 192.105469 247.082031 191.65625 C 245.273438 189.847656 242.335938 189.847656 240.753906 191.65625 C 240.300781 192.105469 230.355469 202.277344 230.355469 215.164062 C 230.355469 225.335938 236.683594 233.925781 239.398438 237.316406 L 239.398438 242.289062 L 191.925781 242.289062 L 191.925781 233.925781 C 196.898438 233.023438 205.039062 230.988281 210.6875 225.335938 C 219.503906 216.519531 219.054688 203.183594 219.054688 202.730469 C 219.054688 200.246094 216.792969 198.210938 214.304688 198.4375 C 213.628906 198.4375 200.515625 198.886719 191.925781 207.027344 L 191.925781 195.722656 C 196.898438 194.820312 205.039062 192.785156 210.6875 187.132812 C 219.503906 178.316406 219.054688 164.980469 219.054688 164.527344 C 219.054688 162.042969 216.792969 160.007812 214.304688 160.234375 C 213.628906 160.234375 200.515625 160.683594 191.925781 168.824219 L 191.925781 159.78125 C 194.640625 156.390625 200.96875 148.027344 200.96875 137.628906 C 200.96875 124.742188 191.023438 114.570312 190.570312 114.117188 C 188.761719 112.308594 185.824219 112.308594 184.242188 114.117188 C 183.789062 114.570312 173.84375 124.742188 173.84375 137.628906 C 173.84375 147.800781 180.171875 156.390625 182.886719 159.78125 L 182.886719 168.824219 C 174.296875 160.683594 160.957031 160.234375 160.507812 160.234375 C 158.019531 160.007812 155.984375 162.042969 155.757812 164.527344 C 155.757812 164.980469 155.308594 178.316406 164.121094 187.132812 C 169.773438 193.011719 177.910156 195.046875 182.886719 195.722656 L 182.886719 207.027344 C 174.296875 198.886719 160.957031 198.4375 160.507812 198.4375 C 158.019531 198.210938 155.984375 200.246094 155.757812 202.730469 C 155.757812 203.183594 155.308594 216.519531 164.121094 225.335938 C 169.773438 231.214844 177.910156 233.246094 182.886719 233.925781 L 182.886719 242.289062 L 135.414062 242.289062 L 135.414062 237.316406 C 138.125 233.925781 144.457031 225.5625 144.457031 215.164062 C 144.457031 202.277344 134.511719 192.105469 134.058594 191.65625 C 132.25 189.847656 129.3125 189.847656 127.726562 191.65625 C 127.277344 192.105469 117.332031 202.277344 117.332031 215.164062 C 117.332031 225.335938 123.660156 233.925781 126.371094 237.316406 L 126.371094 242.289062 L 78.902344 242.289062 L 78.902344 233.925781 C 83.875 233.023438 92.011719 230.988281 97.664062 225.335938 C 106.480469 216.519531 106.027344 203.183594 106.027344 202.730469 C 106.027344 200.246094 103.765625 198.210938 101.28125 198.4375 C 100.601562 198.4375 87.492188 198.886719 78.902344 207.027344 L 78.902344 195.722656 C 83.875 194.820312 92.011719 192.785156 97.664062 187.132812 C 106.480469 178.316406 106.027344 164.980469 106.027344 164.527344 C 106.027344 162.042969 103.765625 160.007812 101.28125 160.234375 C 100.601562 160.234375 87.492188 160.683594 78.902344 168.824219 L 78.902344 159.78125 C 81.613281 156.390625 87.945312 148.027344 87.945312 137.628906 C 87.945312 124.742188 77.996094 114.570312 77.546875 114.117188 C 75.738281 112.308594 72.796875 112.308594 71.214844 114.117188 C 70.761719 114.117188 60.816406 124.292969 60.816406 137.175781 C 60.816406 147.347656 67.148438 155.9375 69.859375 159.328125 L 69.859375 168.371094 C 61.269531 160.234375 47.933594 159.78125 47.480469 159.78125 C 44.992188 159.554688 42.734375 161.589844 42.734375 164.078125 C 42.734375 164.527344 42.28125 177.867188 51.097656 186.679688 C 56.75 192.558594 64.886719 194.59375 69.859375 195.269531 L 69.859375 206.574219 C 61.269531 198.4375 47.933594 197.984375 47.480469 197.984375 C 44.992188 197.984375 42.734375 200.019531 42.734375 202.503906 C 42.734375 202.957031 42.28125 216.292969 51.097656 225.109375 C 56.75 230.988281 64.886719 233.023438 69.859375 233.699219 L 69.859375 242.0625 L 47.253906 242.0625 C 44.769531 242.0625 42.734375 244.097656 42.734375 246.585938 C 42.734375 249.070312 44.769531 251.105469 47.253906 251.105469 L 97.210938 251.105469 L 89.300781 260.148438 L 47.253906 260.148438 C 44.769531 260.148438 42.734375 262.183594 42.734375 264.667969 C 42.734375 267.15625 44.769531 269.191406 47.253906 269.191406 L 81.386719 269.191406 L 73.476562 278.230469 L 47.253906 278.230469 C 44.769531 278.230469 42.734375 280.265625 42.734375 282.753906 C 42.734375 285.238281 44.769531 287.273438 47.253906 287.273438 L 65.5625 287.273438 L 57.652344 296.316406 L 47.253906 296.316406 C 44.769531 296.316406 42.734375 298.351562 42.734375 300.835938 C 42.734375 303.324219 44.769531 305.359375 47.253906 305.359375 L 327.558594 305.359375 C 330.042969 305.359375 332.078125 303.324219 332.078125 300.835938 C 332.078125 298.351562 330.042969 296.316406 327.558594 296.316406 L 317.160156 296.316406 L 309.246094 287.273438 L 327.558594 287.273438 C 330.042969 287.273438 332.078125 285.238281 332.078125 282.753906 C 332.078125 280.265625 330.042969 278.230469 327.558594 278.230469 L 301.335938 278.230469 L 293.425781 269.191406 L 327.558594 269.191406 Z M 310.605469 213.808594 C 313.996094 210.417969 318.742188 208.835938 322.585938 207.929688 C 321.90625 211.320312 320.550781 215.617188 317.386719 218.78125 C 313.996094 222.171875 309.246094 223.753906 305.40625 224.65625 C 306.082031 221.265625 307.4375 216.972656 310.605469 213.808594 Z M 310.605469 175.378906 C 313.996094 171.988281 318.742188 170.40625 322.585938 169.5 C 321.90625 172.890625 320.550781 177.1875 317.386719 180.351562 C 313.996094 183.742188 309.246094 185.324219 305.40625 186.230469 C 306.082031 182.839844 307.4375 178.542969 310.605469 175.378906 Z M 283.476562 180.351562 C 280.3125 177.1875 278.957031 172.890625 278.277344 169.5 C 281.894531 170.179688 286.867188 171.988281 290.257812 175.378906 C 293.425781 178.542969 294.78125 182.839844 295.457031 186.230469 C 291.839844 185.324219 286.867188 183.742188 283.476562 180.351562 Z M 283.476562 218.78125 C 280.3125 215.617188 278.957031 211.320312 278.277344 207.929688 C 281.894531 208.609375 286.867188 210.417969 290.257812 213.808594 C 293.425781 216.972656 294.78125 221.265625 295.457031 224.65625 C 291.839844 223.753906 286.867188 222.171875 283.476562 218.78125 Z M 300.433594 124.066406 C 302.464844 127.230469 304.953125 131.976562 304.953125 137.175781 C 304.953125 142.375 302.464844 147.121094 300.433594 150.285156 C 298.398438 147.121094 295.910156 142.375 295.910156 137.175781 C 295.910156 131.976562 298.398438 127.230469 300.433594 124.066406 Z M 84.550781 213.808594 C 87.945312 210.417969 92.691406 208.835938 96.535156 207.929688 C 95.855469 211.320312 94.5 215.617188 91.335938 218.78125 C 87.945312 222.171875 83.195312 223.753906 79.351562 224.65625 C 80.03125 221.265625 81.386719 216.972656 84.550781 213.808594 Z M 84.550781 175.378906 C 87.945312 171.988281 92.691406 170.40625 96.535156 169.5 C 95.855469 172.890625 94.5 177.1875 91.335938 180.351562 C 87.945312 183.742188 83.195312 185.324219 79.351562 186.230469 C 80.03125 182.839844 81.386719 178.542969 84.550781 175.378906 Z M 57.425781 180.351562 C 54.261719 177.1875 52.90625 172.890625 52.226562 169.5 C 55.84375 170.179688 60.816406 171.988281 64.207031 175.378906 C 67.371094 178.542969 68.730469 182.839844 69.40625 186.230469 C 65.789062 185.324219 60.816406 183.742188 57.425781 180.351562 Z M 57.425781 218.78125 C 54.261719 215.617188 52.90625 211.320312 52.226562 207.929688 C 55.84375 208.609375 60.816406 210.417969 64.207031 213.808594 C 67.371094 216.972656 68.730469 221.265625 69.40625 224.65625 C 65.789062 223.753906 60.816406 222.171875 57.425781 218.78125 Z M 74.378906 124.066406 C 76.414062 127.230469 78.902344 131.976562 78.902344 137.175781 C 78.902344 142.375 76.414062 147.121094 74.378906 150.285156 C 72.347656 147.121094 69.859375 142.375 69.859375 137.175781 C 69.859375 131.976562 72.347656 127.230469 74.378906 124.066406 Z M 273.53125 260.375 L 240.753906 260.375 L 233.292969 251.332031 L 265.621094 251.332031 Z M 182.886719 251.332031 L 182.886719 260.375 L 145.8125 260.375 L 153.273438 251.332031 Z M 182.886719 269.417969 L 182.886719 278.457031 L 130.667969 278.457031 L 138.125 269.417969 Z M 182.886719 287.5 L 182.886719 296.542969 L 115.746094 296.542969 L 123.207031 287.5 Z M 191.925781 287.5 L 251.605469 287.5 L 259.0625 296.542969 L 191.925781 296.542969 Z M 191.925781 278.457031 L 191.925781 269.417969 L 236.460938 269.417969 L 243.917969 278.457031 Z M 191.925781 260.375 L 191.925781 251.332031 L 221.539062 251.332031 L 229 260.375 Z M 243.917969 202.054688 C 245.953125 205.21875 248.441406 209.964844 248.441406 215.164062 C 248.441406 220.363281 245.953125 225.109375 243.917969 228.273438 C 241.882812 225.109375 239.398438 220.363281 239.398438 215.164062 C 239.398438 209.964844 241.882812 205.21875 243.917969 202.054688 Z M 197.578125 213.808594 C 200.96875 210.417969 205.714844 208.835938 209.558594 207.929688 C 208.882812 211.320312 207.523438 215.617188 204.359375 218.78125 C 200.96875 222.171875 196.222656 223.753906 192.378906 224.65625 C 193.058594 221.265625 194.414062 216.972656 197.578125 213.808594 Z M 197.578125 175.378906 C 200.96875 171.988281 205.714844 170.40625 209.558594 169.5 C 208.882812 172.890625 207.523438 177.1875 204.359375 180.351562 C 200.96875 183.742188 196.222656 185.324219 192.378906 186.230469 C 193.058594 182.839844 194.414062 178.542969 197.578125 175.378906 Z M 187.40625 124.066406 C 189.441406 127.230469 191.925781 131.976562 191.925781 137.175781 C 191.925781 142.375 189.441406 147.121094 187.40625 150.285156 C 185.371094 147.121094 182.886719 142.375 182.886719 137.175781 C 182.886719 131.976562 185.371094 127.230469 187.40625 124.066406 Z M 170.453125 180.351562 C 167.289062 177.1875 165.929688 172.890625 165.253906 169.5 C 168.871094 170.179688 173.84375 171.988281 177.234375 175.378906 C 180.398438 178.542969 181.753906 182.839844 182.433594 186.230469 C 178.816406 185.324219 173.84375 183.742188 170.453125 180.351562 Z M 170.453125 218.78125 C 167.289062 215.617188 165.929688 211.320312 165.253906 207.929688 C 168.871094 208.609375 173.84375 210.417969 177.234375 213.808594 C 180.398438 216.972656 181.753906 221.265625 182.433594 224.65625 C 178.816406 223.753906 173.84375 222.171875 170.453125 218.78125 Z M 130.894531 202.054688 C 132.925781 205.21875 135.414062 209.964844 135.414062 215.164062 C 135.414062 220.363281 132.925781 225.109375 130.894531 228.273438 C 128.859375 225.109375 126.371094 220.363281 126.371094 215.164062 C 126.371094 209.964844 128.859375 205.21875 130.894531 202.054688 Z M 109.191406 251.332031 L 141.519531 251.332031 L 134.058594 260.375 L 101.28125 260.375 Z M 93.367188 269.417969 L 126.597656 269.417969 L 119.136719 278.457031 L 85.457031 278.457031 Z M 77.546875 287.5 L 111.453125 287.5 L 103.992188 296.542969 L 69.632812 296.542969 Z M 305.179688 296.542969 L 270.820312 296.542969 L 263.359375 287.5 L 297.265625 287.5 Z M 289.355469 278.457031 L 255.898438 278.457031 L 248.441406 269.417969 L 281.667969 269.417969 Z M 289.355469 278.457031 " fill-opacity="1" fill-rule="nonzero"/></g><path fill="#556b24" d="M 187.40625 70.492188 C 170 70.492188 155.757812 84.730469 155.757812 102.136719 C 155.757812 104.625 157.792969 106.660156 160.28125 106.660156 C 162.765625 106.660156 164.800781 104.625 164.800781 102.136719 C 164.800781 89.707031 174.972656 79.53125 187.40625 79.53125 C 199.839844 79.53125 210.011719 89.707031 210.011719 102.136719 C 210.011719 104.625 212.046875 106.660156 214.53125 106.660156 C 217.019531 106.660156 219.054688 104.625 219.054688 102.136719 C 219.054688 84.730469 204.8125 70.492188 187.40625 70.492188 Z M 187.40625 70.492188 " fill-opacity="1" fill-rule="nonzero"/><path fill="#556b24" d="M 187.40625 61.449219 C 189.894531 61.449219 191.925781 59.414062 191.925781 56.929688 L 191.925781 20.757812 C 191.925781 18.273438 189.894531 16.238281 187.40625 16.238281 C 184.917969 16.238281 182.886719 18.273438 182.886719 20.757812 L 182.886719 56.929688 C 182.886719 59.414062 184.917969 61.449219 187.40625 61.449219 Z M 187.40625 61.449219 " fill-opacity="1" fill-rule="nonzero"/><path fill="#556b24" d="M 165.929688 62.128906 C 166.835938 64.386719 169.546875 65.519531 171.808594 64.613281 C 174.070312 63.710938 175.199219 60.996094 174.296875 58.734375 L 168.191406 44.042969 C 167.289062 41.78125 164.574219 40.652344 162.3125 41.554688 C 160.054688 42.460938 158.921875 45.171875 159.828125 47.433594 C 159.828125 47.433594 165.929688 62.128906 165.929688 62.128906 Z M 165.929688 62.128906 " fill-opacity="1" fill-rule="nonzero"/><path fill="#556b24" d="M 132.703125 74.558594 C 130.441406 73.65625 127.726562 74.785156 126.824219 77.046875 C 125.921875 79.308594 127.050781 82.019531 129.3125 82.921875 L 144.003906 89.027344 C 146.265625 89.929688 148.976562 88.800781 149.882812 86.539062 C 150.785156 84.28125 149.65625 81.566406 147.394531 80.664062 Z M 132.703125 74.558594 " fill-opacity="1" fill-rule="nonzero"/><path fill="#556b24" d="M 245.5 82.921875 C 247.761719 82.019531 248.890625 79.308594 247.988281 77.046875 C 247.082031 74.785156 244.371094 73.65625 242.109375 74.558594 L 227.417969 80.664062 C 225.15625 81.566406 224.027344 84.28125 224.929688 86.539062 C 225.835938 88.800781 228.546875 89.929688 230.808594 89.027344 Z M 245.5 82.921875 " fill-opacity="1" fill-rule="nonzero"/><path fill="#556b24" d="M 203.003906 64.613281 C 205.265625 65.519531 207.976562 64.386719 208.882812 62.128906 L 214.984375 47.433594 C 215.886719 45.171875 214.757812 42.460938 212.496094 41.554688 C 210.238281 40.652344 207.523438 41.78125 206.621094 44.042969 L 200.515625 58.734375 C 199.613281 60.996094 200.742188 63.484375 203.003906 64.613281 Z M 203.003906 64.613281 " fill-opacity="1" fill-rule="nonzero"/><path fill="#556b24" d="M 152.140625 73.429688 C 153.949219 75.238281 156.890625 75.238281 158.472656 73.429688 C 160.28125 71.621094 160.28125 68.910156 158.472656 67.101562 L 133.152344 41.332031 C 131.34375 39.523438 128.632812 39.523438 126.824219 41.332031 C 125.015625 43.140625 125.015625 45.851562 126.824219 47.660156 Z M 152.140625 73.429688 " fill-opacity="1" fill-rule="nonzero"/><path fill="#556b24" d="M 106.027344 106.660156 L 142.195312 106.660156 C 144.683594 106.660156 146.714844 104.625 146.714844 102.136719 C 146.714844 99.652344 144.683594 97.617188 142.195312 97.617188 L 106.027344 97.617188 C 103.539062 97.617188 101.507812 99.652344 101.507812 102.136719 C 101.507812 104.625 103.539062 106.660156 106.027344 106.660156 Z M 106.027344 106.660156 " fill-opacity="1" fill-rule="nonzero"/><path fill="#556b24" d="M 228.09375 102.136719 C 228.09375 104.625 230.128906 106.660156 232.617188 106.660156 L 268.785156 106.660156 C 271.269531 106.660156 273.304688 104.625 273.304688 102.136719 C 273.304688 99.652344 271.269531 97.617188 268.785156 97.617188 L 232.617188 97.617188 C 230.128906 97.617188 228.09375 99.652344 228.09375 102.136719 Z M 228.09375 102.136719 " fill-opacity="1" fill-rule="nonzero"/><path fill="#556b24" d="M 216.113281 73.429688 C 217.921875 75.238281 220.863281 75.238281 222.445312 73.429688 L 248.214844 47.886719 C 250.023438 46.078125 250.023438 43.363281 248.214844 41.554688 C 246.40625 39.746094 243.691406 39.746094 241.882812 41.554688 L 216.113281 66.875 C 214.304688 68.683594 214.304688 71.621094 216.113281 73.429688 Z M 216.113281 73.429688 " fill-opacity="1" fill-rule="nonzero"/><g clip-path="url(#d60edde439)"><path fill="#556b24" d="M 187.46875 314.59375 C 186.71875 314.59375 185.972656 314.628906 185.226562 314.703125 C 184.480469 314.777344 183.738281 314.886719 183.003906 315.03125 C 182.269531 315.179688 181.542969 315.359375 180.828125 315.578125 C 180.109375 315.796875 179.40625 316.046875 178.714844 316.332031 C 178.023438 316.621094 177.34375 316.941406 176.683594 317.292969 C 176.023438 317.648438 175.382812 318.03125 174.757812 318.449219 C 174.136719 318.863281 173.535156 319.308594 172.957031 319.785156 C 172.375 320.261719 171.820312 320.761719 171.292969 321.292969 C 170.761719 321.820312 170.261719 322.375 169.785156 322.957031 C 169.308594 323.535156 168.863281 324.136719 168.449219 324.757812 C 168.03125 325.382812 167.648438 326.023438 167.292969 326.683594 C 166.941406 327.34375 166.621094 328.023438 166.332031 328.714844 C 166.046875 329.40625 165.796875 330.109375 165.578125 330.828125 C 165.359375 331.542969 165.179688 332.269531 165.03125 333.003906 C 164.886719 333.738281 164.777344 334.480469 164.703125 335.226562 C 164.628906 335.972656 164.59375 336.71875 164.59375 337.46875 C 164.59375 338.214844 164.628906 338.964844 164.703125 339.710938 C 164.777344 340.457031 164.886719 341.195312 165.03125 341.929688 C 165.179688 342.664062 165.359375 343.390625 165.578125 344.109375 C 165.796875 344.824219 166.046875 345.527344 166.332031 346.222656 C 166.621094 346.914062 166.941406 347.589844 167.292969 348.25 C 167.648438 348.910156 168.03125 349.554688 168.449219 350.175781 C 168.863281 350.800781 169.308594 351.398438 169.785156 351.980469 C 170.261719 352.558594 170.761719 353.113281 171.292969 353.644531 C 171.820312 354.171875 172.375 354.675781 172.957031 355.148438 C 173.535156 355.625 174.136719 356.070312 174.757812 356.488281 C 175.382812 356.902344 176.023438 357.289062 176.683594 357.640625 C 177.34375 357.996094 178.023438 358.316406 178.714844 358.601562 C 179.40625 358.886719 180.109375 359.140625 180.828125 359.359375 C 181.542969 359.574219 182.269531 359.757812 183.003906 359.902344 C 183.738281 360.050781 184.480469 360.160156 185.226562 360.230469 C 185.972656 360.304688 186.71875 360.34375 187.46875 360.34375 C 188.214844 360.34375 188.964844 360.304688 189.710938 360.230469 C 190.457031 360.160156 191.195312 360.050781 191.929688 359.902344 C 192.664062 359.757812 193.390625 359.574219 194.109375 359.359375 C 194.824219 359.140625 195.527344 358.886719 196.222656 358.601562 C 196.914062 358.316406 197.589844 357.996094 198.25 357.640625 C 198.910156 357.289062 199.554688 356.902344 200.175781 356.488281 C 200.800781 356.070312 201.398438 355.625 201.980469 355.148438 C 202.558594 354.675781 203.113281 354.171875 203.644531 353.644531 C 204.171875 353.113281 204.675781 352.558594 205.148438 351.980469 C 205.625 351.398438 206.070312 350.800781 206.488281 350.175781 C 206.902344 349.554688 207.289062 348.910156 207.640625 348.25 C 207.996094 347.589844 208.316406 346.914062 208.601562 346.222656 C 208.886719 345.527344 209.140625 344.824219 209.359375 344.109375 C 209.574219 343.390625 209.757812 342.664062 209.902344 341.929688 C 210.050781 341.195312 210.160156 340.457031 210.230469 339.710938 C 210.304688 338.964844 210.34375 338.214844 210.34375 337.46875 C 210.339844 336.71875 210.304688 335.972656 210.230469 335.226562 C 210.15625 334.480469 210.042969 333.742188 209.898438 333.007812 C 209.75 332.273438 209.566406 331.546875 209.347656 330.832031 C 209.132812 330.113281 208.878906 329.410156 208.589844 328.71875 C 208.304688 328.027344 207.984375 327.351562 207.628906 326.691406 C 207.277344 326.03125 206.890625 325.390625 206.476562 324.769531 C 206.058594 324.144531 205.613281 323.542969 205.136719 322.964844 C 204.664062 322.386719 204.160156 321.832031 203.632812 321.304688 C 203.101562 320.773438 202.546875 320.273438 201.96875 319.796875 C 201.390625 319.320312 200.789062 318.875 200.167969 318.460938 C 199.542969 318.042969 198.902344 317.65625 198.242188 317.304688 C 197.582031 316.953125 196.90625 316.632812 196.214844 316.34375 C 195.523438 316.058594 194.820312 315.804688 194.105469 315.585938 C 193.386719 315.367188 192.660156 315.183594 191.925781 315.039062 C 191.195312 314.890625 190.453125 314.78125 189.707031 314.707031 C 188.964844 314.632812 188.214844 314.59375 187.46875 314.59375 Z M 196.617188 339.753906 L 189.753906 339.753906 L 189.753906 346.617188 C 189.753906 346.921875 189.695312 347.210938 189.582031 347.492188 C 189.464844 347.773438 189.300781 348.019531 189.085938 348.234375 C 188.871094 348.449219 188.625 348.613281 188.34375 348.730469 C 188.0625 348.847656 187.769531 348.90625 187.46875 348.90625 C 187.164062 348.90625 186.871094 348.847656 186.59375 348.730469 C 186.3125 348.613281 186.066406 348.449219 185.851562 348.234375 C 185.636719 348.019531 185.46875 347.773438 185.355469 347.492188 C 185.238281 347.210938 185.179688 346.921875 185.179688 346.617188 L 185.179688 339.753906 L 178.316406 339.753906 C 178.015625 339.753906 177.722656 339.695312 177.441406 339.582031 C 177.160156 339.464844 176.914062 339.300781 176.699219 339.085938 C 176.484375 338.871094 176.320312 338.625 176.203125 338.34375 C 176.089844 338.0625 176.03125 337.769531 176.03125 337.46875 C 176.03125 337.164062 176.089844 336.871094 176.203125 336.59375 C 176.320312 336.3125 176.484375 336.066406 176.699219 335.851562 C 176.914062 335.636719 177.160156 335.46875 177.441406 335.355469 C 177.722656 335.238281 178.015625 335.179688 178.316406 335.179688 L 185.179688 335.179688 L 185.179688 328.316406 C 185.179688 328.015625 185.238281 327.722656 185.355469 327.441406 C 185.46875 327.160156 185.636719 326.914062 185.851562 326.699219 C 186.066406 326.484375 186.3125 326.320312 186.59375 326.203125 C 186.871094 326.089844 187.164062 326.03125 187.46875 326.03125 C 187.769531 326.03125 188.0625 326.089844 188.34375 326.203125 C 188.625 326.320312 188.871094 326.484375 189.085938 326.699219 C 189.300781 326.914062 189.464844 327.160156 189.582031 327.441406 C 189.695312 327.722656 189.753906 328.015625 189.753906 328.316406 L 189.753906 335.179688 L 196.617188 335.179688 C 196.921875 335.179688 197.210938 335.238281 197.492188 335.355469 C 197.773438 335.46875 198.019531 335.636719 198.234375 335.851562 C 198.449219 336.066406 198.613281 336.3125 198.730469 336.59375 C 198.847656 336.871094 198.90625 337.164062 198.90625 337.46875 C 198.90625 337.769531 198.847656 338.0625 198.730469 338.34375 C 198.613281 338.625 198.449219 338.871094 198.234375 339.085938 C 198.019531 339.300781 197.773438 339.464844 197.492188 339.582031 C 197.210938 339.695312 196.921875 339.753906 196.617188 339.753906 Z M 196.617188 339.753906 " fill-opacity="1" fill-rule="nonzero"/></g></svg>